# xmcd
#
# Track frame offsets:
# 150
# 20268
# 54126
# 88745
# 121636
# 143727
# 183349
# 198984
# 225040
# 254548
# 276286
# 309907
#
# Disc length: 4651 seconds
#
#
# Revision: 0
# Processed by: cddbd v1.5.2PL0 Copyright (c) Steve Scherf et al.
# Submitted via: FreeRIP 2.96 
#
DISCID=8e12290c
DTITLE=Cody McFadyen - Die Blutlinie CD5v6
DYEAR=2007
DGENRE=Speech
TTITLE0=50 Die Blutlinie
TTITLE1=51 Die Blutlinie
TTITLE2=52 Die Blutlinie
TTITLE3=53 Die Blutlinie
TTITLE4=54 Die Blutlinie
TTITLE5=55 Die Blutlinie
TTITLE6=56 Die Blutlinie
TTITLE7=57 Die Blutlinie
TTITLE8=58 Die Blutlinie
TTITLE9=59 Die Blutlinie
TTITLE10=60 Die Blutlinie
TTITLE11=61 Die Blutlinie
EXTD=gelesen von Franziska Pigulla
EXTT0=
EXTT1=
EXTT2=
EXTT3=
EXTT4=
EXTT5=
EXTT6=
EXTT7=
EXTT8=
EXTT9=
EXTT10=
EXTT11=
PLAYORDER=
